<svg width="1444" height="2152" viewBox="0 0 1444 2152" fill="none" xmlns="http://www.w3.org/2000/svg">
<path d="M250 39.2106C47.5635 -30.5443 32 11.0001 0 39.2106V2078.11C22 2133 202 2055 420 2078.11C646 2169 602.684 2028.53 848 2117C1092 2205 986.815 2095.68 1248 2117C1444 2133 1444 1965 1444 1905.86V211C1444 89.0002 1428 145 1200 103.302C1094 83.9157 1164 52.0003 948 39.2106C822 39.2106 863.895 151.452 758 103.302C566 16.0003 575 39.2106 502 39.2106C418 55.0003 436 103.302 250 39.2106Z" fill="#FB8F67"/>
</svg>
