<svg id="wave" style="transform:rotate(0deg); transition: 0.3s" viewBox="0 0 1440 430" version="1.1" xmlns="http://www.w3.org/2000/svg"><defs><linearGradient id="sw-gradient-0" x1="0" x2="0" y1="1" y2="0"><stop stop-color="rgba(62, 243, 89.084, 1)" offset="0%"></stop><stop stop-color="rgba(52.343, 166.575, 88.786, 1)" offset="100%"></stop></linearGradient></defs><path style="transform:translate(0, 0px); opacity:1" fill="url(#sw-gradient-0)" d="M0,215L21.8,193.5C43.6,172,87,129,131,129C174.5,129,218,172,262,193.5C305.5,215,349,215,393,179.2C436.4,143,480,72,524,35.8C567.3,0,611,0,655,28.7C698.2,57,742,115,785,179.2C829.1,244,873,315,916,308.2C960,301,1004,215,1047,150.5C1090.9,86,1135,43,1178,50.2C1221.8,57,1265,115,1309,157.7C1352.7,201,1396,229,1440,222.2C1483.6,215,1527,172,1571,150.5C1614.5,129,1658,129,1702,121.8C1745.5,115,1789,100,1833,86C1876.4,72,1920,57,1964,78.8C2007.3,100,2051,158,2095,200.7C2138.2,244,2182,272,2225,301C2269.1,330,2313,358,2356,365.5C2400,373,2444,358,2487,293.8C2530.9,229,2575,115,2618,107.5C2661.8,100,2705,201,2749,207.8C2792.7,215,2836,129,2880,86C2923.6,43,2967,43,3011,86C3054.5,129,3098,215,3120,258L3141.8,301L3141.8,430L3120,430C3098.2,430,3055,430,3011,430C2967.3,430,2924,430,2880,430C2836.4,430,2793,430,2749,430C2705.5,430,2662,430,2618,430C2574.5,430,2531,430,2487,430C2443.6,430,2400,430,2356,430C2312.7,430,2269,430,2225,430C2181.8,430,2138,430,2095,430C2050.9,430,2007,430,1964,430C1920,430,1876,430,1833,430C1789.1,430,1745,430,1702,430C1658.2,430,1615,430,1571,430C1527.3,430,1484,430,1440,430C1396.4,430,1353,430,1309,430C1265.5,430,1222,430,1178,430C1134.5,430,1091,430,1047,430C1003.6,430,960,430,916,430C872.7,430,829,430,785,430C741.8,430,698,430,655,430C610.9,430,567,430,524,430C480,430,436,430,393,430C349.1,430,305,430,262,430C218.2,430,175,430,131,430C87.3,430,44,430,22,430L0,430Z"></path></svg>